# xmcd
#
# Track frame offsets: 
#        150
#        15842
#        31203
#        49303
#        69731
#        89750
#        111365
#        124965
#        142773
#        153887
#
# Disc length: 2249 seconds
#
# Revision: 1
# Processed by: cddbd v1.5.2PL0 Copyright (c) Steve Scherf et al.
# Submitted via: ExactAudioCopy v0.99pb4
#
DISCID=8108c70a
DTITLE=John Lee Hooker - Jealous
DYEAR=1900
DGENRE=Blues
TTITLE0=Jealous
TTITLE1=Ninety Days
TTITLE2=Early One Mornin
TTITLE3=When My First Wife Left Me
TTITLE4=Boogie Woman
TTITLE5=Well Well
TTITLE6=I Don't Know
TTITLE7=We'll Meet Again
TTITLE8=Worried Life Blues
TTITLE9=Ninety Days
EXTD=ID3G: 0
EXTT0=
EXTT1=
EXTT2=
EXTT3=
EXTT4=
EXTT5=
EXTT6=
EXTT7=
EXTT8=
EXTT9=
PLAYORDER=
